<svg xmlns="http://www.w3.org/2000/svg" xmlns:xlink="http://www.w3.org/1999/xlink" width="500" zoomAndPan="magnify" viewBox="0 0 375 74.999997" height="100" preserveAspectRatio="xMidYMid meet" version="1.0"><defs><clipPath id="id1"><path d="M 81.0625 21.351562 L 113.132812 21.351562 L 113.132812 53.734375 L 81.0625 53.734375 Z M 81.0625 21.351562 " clip-rule="nonzero"/></clipPath></defs><path fill="#ffffff" d="M 74.730469 52.367188 L 70.269531 29.53125 L 61.414062 51.417969 C 61.3125 51.683594 61.144531 51.910156 60.90625 52.089844 C 60.667969 52.273438 60.390625 52.367188 60.070312 52.367188 C 59.777344 52.367188 59.507812 52.273438 59.257812 52.089844 C 59.003906 51.910156 58.824219 51.683594 58.722656 51.417969 L 49.882812 29.53125 L 45.421875 52.367188 L 42.621094 51.859375 L 47.988281 23.898438 C 48.0625 23.558594 48.210938 23.292969 48.441406 23.101562 C 48.667969 22.90625 48.945312 22.789062 49.265625 22.742188 C 49.601562 22.6875 49.90625 22.746094 50.171875 22.921875 C 50.4375 23.085938 50.628906 23.328125 50.746094 23.648438 L 60.070312 46.882812 L 69.390625 23.648438 C 69.507812 23.328125 69.703125 23.089844 69.96875 22.933594 C 70.242188 22.78125 70.546875 22.714844 70.886719 22.742188 C 71.199219 22.761719 71.46875 22.875 71.695312 23.085938 C 71.925781 23.289062 72.078125 23.558594 72.148438 23.898438 L 77.515625 51.859375 Z M 74.730469 52.367188 " fill-opacity="1" fill-rule="nonzero"/><g clip-path="url(#id1)"><path fill="#ffffff" d="M 93.421875 53.097656 C 93.460938 53.125 93.488281 53.105469 93.421875 53.097656 Z M 85.527344 25.890625 C 85.535156 25.878906 85.539062 25.871094 85.546875 25.863281 C 85.511719 25.792969 85.480469 25.730469 85.457031 25.679688 Z M 90.15625 22.960938 C 90.167969 22.960938 90.179688 22.960938 90.195312 22.960938 C 90.167969 22.921875 90.15625 22.882812 90.15625 22.960938 Z M 81.621094 37.53125 C 81.621094 37.574219 81.636719 37.601562 81.664062 37.621094 C 81.644531 37.59375 81.628906 37.5625 81.621094 37.53125 Z M 102.992188 52.367188 C 102.992188 52.367188 102.976562 52.375 102.972656 52.382812 C 102.992188 52.390625 103.015625 52.394531 103.039062 52.40625 Z M 102.933594 52.523438 C 102.804688 52.511719 102.925781 52.410156 102.972656 52.378906 C 102.816406 52.328125 102.695312 52.363281 102.589844 52.453125 C 102.625 52.5625 102.851562 52.464844 102.933594 52.523438 Z M 113.09375 39.417969 L 113.132812 39.472656 C 113.121094 39.453125 113.105469 39.433594 113.09375 39.417969 Z M 87.292969 37.15625 C 87.304688 37.171875 87.308594 37.191406 87.316406 37.207031 C 87.324219 37.179688 87.308594 37.167969 87.292969 37.15625 Z M 112.421875 42.023438 L 112.585938 42.105469 C 112.523438 42.058594 112.46875 42.035156 112.421875 42.023438 Z M 85.460938 25.683594 L 85.4375 25.601562 C 85.4375 25.625 85.449219 25.652344 85.460938 25.683594 Z M 94.894531 21.472656 C 94.90625 21.527344 94.921875 21.570312 94.945312 21.605469 L 94.960938 21.605469 Z M 110.738281 34.769531 C 110.757812 34.765625 110.78125 34.753906 110.804688 34.746094 L 110.660156 34.691406 C 110.679688 34.730469 110.707031 34.753906 110.738281 34.769531 Z M 101.449219 22.484375 C 101.457031 22.464844 101.476562 22.449219 101.484375 22.429688 C 101.390625 22.34375 101.109375 22.246094 100.738281 22.179688 L 100.671875 22.394531 C 100.671875 22.394531 100.722656 22.398438 100.796875 22.402344 C 100.867188 22.410156 100.964844 22.421875 101.058594 22.433594 C 101.253906 22.457031 101.449219 22.484375 101.449219 22.484375 Z M 101.449219 22.484375 " fill-opacity="1" fill-rule="nonzero"/><path fill="#ffffff" d="M 104.296875 29.679688 C 104.296875 29.679688 104.292969 29.640625 104.289062 29.578125 C 104.28125 29.515625 104.277344 29.433594 104.261719 29.359375 L 104.214844 29.042969 C 104.566406 29.210938 104.796875 29.460938 105.023438 29.664062 C 105.253906 29.863281 105.40625 30.097656 105.574219 30.304688 C 105.734375 30.515625 105.910156 30.710938 106.070312 30.929688 C 106.234375 31.148438 106.464844 31.339844 106.710938 31.574219 L 106.589844 31.5625 C 106.59375 31.671875 106.820312 31.613281 107.066406 31.84375 C 107.175781 31.964844 107.328125 32.140625 107.382812 32.46875 C 107.433594 32.792969 107.503906 33.222656 107.363281 33.820312 L 107.324219 33.835938 C 107.355469 33.898438 107.4375 33.867188 107.375 34.039062 L 107.511719 33.609375 C 107.691406 33.769531 107.960938 33.878906 108.09375 34.152344 C 108.070312 34.222656 107.980469 34.277344 107.914062 34.300781 L 108.164062 34.976562 L 107.933594 35.25 C 108.136719 35.421875 108.710938 35.21875 108.46875 35.867188 C 108.855469 35.582031 108.769531 36.132812 108.972656 36.03125 C 108.925781 36.066406 108.859375 36.148438 108.796875 36.210938 C 108.875 36.566406 109.019531 37.253906 109.253906 37.429688 C 109.253906 37.429688 109.464844 37.050781 109.71875 36.609375 C 110 36.152344 110.226562 35.609375 110.429688 35.351562 C 110.402344 35.953125 110.503906 35.496094 110.628906 35.355469 L 110.515625 35.335938 C 110.5625 34.964844 110.828125 34.910156 110.875 34.714844 C 110.851562 34.722656 110.828125 34.730469 110.804688 34.742188 L 110.84375 34.757812 C 110.808594 34.78125 110.773438 34.785156 110.738281 34.769531 C 110.679688 34.78125 110.636719 34.773438 110.625 34.675781 L 110.65625 34.691406 C 110.582031 34.550781 110.558594 34.289062 110.546875 34.171875 L 110.765625 34.113281 C 110.644531 34.074219 110.597656 33.933594 110.589844 33.738281 C 110.582031 33.640625 110.589844 33.527344 110.601562 33.410156 C 110.605469 33.292969 110.613281 33.164062 110.625 33.035156 C 110.660156 32.515625 110.765625 31.925781 110.667969 31.75 C 110.75 31.285156 110.242188 30.988281 110.128906 30.503906 C 109.789062 29.796875 110.207031 30 110.164062 29.554688 C 110.019531 29.046875 109.996094 29.785156 109.878906 29.621094 L 109.855469 29.28125 C 109.84375 29.167969 109.828125 29.058594 109.808594 28.945312 C 110.039062 29.214844 110.039062 28.984375 110.070312 28.878906 C 109.785156 28.441406 109.605469 27.476562 109.128906 27.664062 C 108.808594 26.984375 108.933594 26.855469 108.738281 26.609375 C 108.75 26.742188 108.835938 26.949219 108.773438 27.011719 C 108.71875 26.660156 108.644531 26.945312 108.691406 27.0625 C 108.582031 27.015625 108.476562 26.84375 108.34375 26.636719 C 108.210938 26.433594 108.070312 26.179688 107.925781 25.933594 C 107.648438 25.429688 107.3125 25.035156 107.125 25.203125 L 107.179688 25.132812 C 106.875 25.359375 106.785156 25.742188 106.425781 25.722656 L 106.359375 25.46875 L 106.027344 25.417969 C 105.933594 25.199219 106.066406 25.179688 106.09375 25.140625 C 105.84375 25.070312 105.589844 24.917969 105.34375 24.722656 C 105.097656 24.535156 104.855469 24.296875 104.589844 24.152344 C 104.589844 24.152344 104.621094 24.441406 104.636719 24.738281 L 104.648438 25.332031 C 104.507812 25.097656 104.289062 24.792969 104.066406 24.574219 C 103.851562 24.347656 103.636719 24.207031 103.53125 24.335938 C 103.53125 24.335938 103.5 24.226562 103.464844 24.117188 C 103.429688 24.007812 103.394531 23.898438 103.394531 23.898438 C 102.675781 22.949219 102.636719 23.917969 102.332031 23.597656 C 102.332031 23.597656 102.242188 23.46875 102.152344 23.339844 C 102.058594 23.210938 101.957031 23.09375 101.957031 23.09375 C 101.957031 23.09375 102.082031 23.125 102.203125 23.167969 C 102.324219 23.214844 102.441406 23.257812 102.441406 23.257812 C 102.234375 23.074219 102.082031 22.957031 101.9375 22.835938 C 101.796875 22.714844 101.671875 22.589844 101.492188 22.421875 C 101.492188 22.425781 101.488281 22.425781 101.488281 22.429688 C 101.511719 22.453125 101.523438 22.472656 101.523438 22.496094 L 101.449219 22.488281 C 101.34375 22.648438 101.054688 22.699219 100.699219 22.609375 C 100.449219 22.542969 100.210938 22.5625 99.945312 22.53125 C 99.808594 22.519531 99.667969 22.492188 99.511719 22.441406 C 99.429688 22.410156 99.34375 22.375 99.265625 22.335938 C 99.167969 22.296875 99.074219 22.253906 98.980469 22.203125 L 98.75 22.566406 L 98.144531 22.3125 L 98.15625 22.015625 C 98.464844 22.039062 98.910156 22.027344 99.382812 22.042969 C 99.851562 22.085938 100.347656 22.125 100.746094 22.183594 L 100.789062 22.050781 C 100.3125 21.976562 99.753906 22.023438 99.445312 21.949219 C 99.304688 21.855469 98.929688 21.542969 99.238281 21.351562 L 98.914062 21.625 C 98.105469 21.601562 97.699219 21.582031 97.28125 21.582031 C 97.050781 21.574219 96.820312 21.554688 96.59375 21.527344 C 96.457031 21.511719 96.308594 21.492188 96.140625 21.472656 C 95.96875 21.453125 95.777344 21.453125 95.558594 21.4375 L 95.726562 21.566406 C 95.402344 21.703125 95.089844 21.839844 94.953125 21.613281 C 94.4375 21.652344 93.921875 21.75 93.421875 21.769531 C 92.921875 21.78125 92.464844 21.800781 92.074219 21.742188 L 92.046875 22.125 C 91.839844 22.179688 91.320312 21.804688 91.40625 22.300781 C 91.402344 22.289062 91.039062 22.636719 91.039062 22.636719 C 90.753906 22.746094 90.679688 23.003906 90.277344 22.972656 L 90.199219 22.964844 C 90.203125 22.972656 90.210938 22.980469 90.214844 22.988281 C 89.871094 23.070312 89.914062 23.144531 89.9375 23.210938 C 89.964844 23.28125 89.976562 23.351562 89.597656 23.464844 C 89.253906 23.378906 89.589844 23.988281 89.234375 24.109375 C 89.234375 24.109375 89.085938 24.054688 88.9375 23.996094 C 88.789062 23.941406 88.636719 23.886719 88.636719 23.886719 C 87.914062 24.058594 88.097656 24.53125 87.335938 25.148438 C 86.871094 25.320312 86.394531 25.171875 86.386719 24.664062 C 86.359375 25.316406 86.433594 25.027344 86.148438 25.589844 C 85.949219 25.515625 85.96875 25.445312 85.945312 25.230469 C 85.394531 25.4375 85.832031 25.585938 85.546875 25.863281 C 85.726562 26.199219 86.058594 26.679688 85.992188 26.785156 L 86.175781 26.753906 C 86.054688 27.183594 85.820312 27.53125 85.417969 27.796875 L 85.285156 27.671875 L 85.0625 28.125 L 84.859375 28.011719 C 84.859375 28.011719 84.488281 28.621094 84.503906 28.628906 L 84.605469 28.582031 C 84.539062 28.738281 84.328125 29.242188 84.0625 29.449219 L 83.957031 29.371094 C 83.757812 29.515625 83.601562 29.667969 83.503906 29.855469 C 83.40625 30.046875 83.339844 30.246094 83.289062 30.457031 C 83.179688 30.878906 83.113281 31.324219 82.96875 31.824219 L 82.773438 31.601562 C 82.40625 31.84375 83.113281 31.835938 82.847656 32.179688 L 82.539062 32.09375 C 82.816406 32.582031 82.28125 32.511719 82.0625 32.722656 L 82.496094 32.730469 L 82.289062 33.171875 C 82.023438 33.648438 81.691406 33.359375 81.5 33.222656 L 81.726562 33.664062 L 81.347656 33.652344 C 81.707031 34.015625 81.195312 33.90625 81.351562 34.429688 C 81.210938 34.445312 81.148438 34.308594 81.0625 34.460938 C 81.0625 34.460938 81.160156 34.679688 81.261719 34.898438 C 81.359375 35.113281 81.460938 35.324219 81.460938 35.324219 L 81.300781 34.820312 L 81.828125 34.960938 C 82.171875 35.496094 81.660156 35.597656 81.789062 35.960938 C 81.789062 35.960938 81.640625 35.710938 81.648438 35.710938 C 81.730469 36.28125 81.511719 36.292969 81.371094 36.609375 C 81.476562 36.515625 81.632812 36.371094 81.691406 36.605469 C 81.714844 36.773438 81.5 36.683594 81.429688 36.84375 C 81.796875 36.898438 81.945312 37.292969 81.796875 37.652344 C 81.742188 37.648438 81.691406 37.644531 81.660156 37.621094 C 81.722656 37.710938 81.816406 37.757812 81.738281 37.917969 L 81.332031 37.835938 L 81.726562 38.136719 C 81.628906 38.351562 81.933594 38.632812 81.660156 38.625 L 81.574219 38.511719 C 81.574219 38.511719 81.574219 38.609375 81.570312 38.761719 C 81.570312 38.90625 81.5625 39.109375 81.589844 39.308594 C 81.625 39.707031 81.660156 40.105469 81.660156 40.105469 L 81.34375 40.179688 C 81.574219 40.222656 81.566406 40.445312 81.570312 40.640625 C 81.570312 40.839844 81.613281 41.003906 81.871094 40.917969 C 81.648438 41.28125 82.371094 42.011719 81.726562 42.007812 C 81.757812 42.136719 81.792969 42.261719 81.832031 42.371094 C 81.886719 42.484375 81.941406 42.585938 82 42.6875 C 82.117188 42.882812 82.246094 43.0625 82.375 43.25 C 82.5 43.433594 82.613281 43.632812 82.726562 43.851562 C 82.84375 44.074219 82.945312 44.328125 83.015625 44.652344 C 82.714844 45.316406 83.527344 46.355469 83.960938 47.070312 C 84.25 47.371094 84.519531 47.636719 84.773438 47.886719 C 85.03125 48.136719 85.308594 48.339844 85.566406 48.558594 C 86.074219 49.003906 86.644531 49.378906 87.300781 49.855469 C 87.445312 50.453125 88 50.777344 88.5625 51.058594 C 89.160156 51.300781 89.75 51.519531 90.125 51.9375 L 90.519531 51.804688 C 90.730469 52.160156 91.140625 52.355469 91.597656 52.496094 C 92.058594 52.636719 92.542969 52.796875 92.953125 53.160156 C 93.222656 53.097656 93.355469 53.089844 93.414062 53.097656 C 93.375 53.070312 93.324219 53 93.351562 52.816406 C 93.585938 53.015625 94.171875 52.996094 94.050781 53.34375 L 93.972656 53.363281 C 93.910156 53.539062 94.132812 53.550781 94.398438 53.566406 C 94.664062 53.558594 94.972656 53.550781 95.105469 53.734375 L 94.996094 53.316406 L 95.511719 53.460938 L 95.359375 53.515625 C 95.660156 53.445312 95.933594 53.421875 96.1875 53.386719 C 96.425781 53.351562 96.664062 53.335938 96.902344 53.335938 C 97.351562 53.34375 97.753906 53.417969 98.160156 53.4375 C 98.566406 53.46875 98.972656 53.507812 99.40625 53.464844 C 99.839844 53.394531 100.296875 53.25 100.78125 52.96875 C 100.683594 53.203125 100.777344 53.128906 100.90625 53.058594 C 101.035156 52.972656 101.203125 52.882812 101.265625 53.109375 C 101.597656 53.332031 101.84375 53.238281 102.042969 53.054688 C 102.242188 52.867188 102.402344 52.609375 102.578125 52.453125 C 102.570312 52.421875 102.570312 52.390625 102.582031 52.359375 L 103.316406 52.152344 C 103.101562 52.871094 103.652344 51.496094 103.441406 52.117188 C 104.457031 51.972656 105.507812 51.425781 106.496094 50.75 C 106.746094 50.585938 106.972656 50.382812 107.214844 50.199219 C 107.449219 50.007812 107.695312 49.832031 107.921875 49.628906 C 108.140625 49.425781 108.367188 49.226562 108.59375 49.027344 L 108.933594 48.742188 L 109.257812 48.441406 L 109.078125 48.410156 C 109.496094 47.992188 109.847656 47.351562 110.292969 47.132812 C 110.757812 46.914062 110.566406 46.128906 110.621094 45.96875 C 110.644531 45.425781 111.316406 45.328125 111.1875 45.488281 C 111.285156 45.242188 111.296875 44.960938 111.3125 44.660156 C 111.328125 44.363281 111.382812 44.066406 111.640625 43.800781 C 111.78125 43.800781 111.875 43.675781 111.945312 43.496094 C 112.007812 43.316406 112.027344 43.070312 112.054688 42.835938 C 112.097656 42.371094 112.136719 41.949219 112.414062 42.019531 L 112.371094 42 C 112.679688 41.621094 112.722656 41.167969 112.757812 40.71875 C 112.785156 40.265625 112.75 39.808594 113.011719 39.351562 C 113.011719 39.351562 113.050781 39.375 113.085938 39.414062 C 113.085938 39.414062 112.996094 39.277344 112.863281 39.078125 C 112.726562 38.875 112.511719 38.617188 112.308594 38.367188 C 111.898438 37.867188 111.484375 37.425781 111.484375 37.425781 C 111.484375 37.425781 111 37.554688 110.519531 37.660156 C 110.035156 37.769531 109.550781 37.859375 109.550781 37.859375 C 109.550781 37.859375 109.140625 38.179688 108.742188 38.449219 C 108.550781 38.589844 108.316406 38.710938 108.160156 38.800781 L 107.890625 38.945312 C 107.890625 38.945312 107.882812 39.144531 107.871094 39.4375 C 107.84375 39.730469 107.773438 40.117188 107.722656 40.511719 C 107.625 40.902344 107.53125 41.289062 107.457031 41.578125 C 107.355469 41.859375 107.285156 42.046875 107.285156 42.046875 L 107.03125 42.363281 C 106.875 42.550781 106.625 42.773438 106.410156 43.003906 L 106.242188 43.171875 C 106.183594 43.222656 106.121094 43.269531 106.0625 43.316406 C 105.949219 43.410156 105.84375 43.5 105.75 43.574219 C 105.570312 43.722656 105.449219 43.820312 105.449219 43.820312 C 105.449219 43.820312 105.207031 44.097656 104.855469 44.523438 C 104.65625 44.71875 104.425781 44.945312 104.175781 45.191406 C 103.914062 45.410156 103.621094 45.644531 103.328125 45.875 C 103.011719 46.066406 102.714844 46.296875 102.40625 46.460938 C 102.09375 46.609375 101.816406 46.789062 101.554688 46.894531 L 100.925781 47.144531 C 100.851562 47.179688 100.789062 47.203125 100.75 47.21875 L 100.683594 47.238281 C 100.683594 47.238281 100.609375 47.367188 100.535156 47.496094 C 100.460938 47.628906 100.378906 47.757812 100.378906 47.757812 C 100.214844 47.707031 100.046875 47.679688 99.875 47.671875 C 99.710938 47.664062 99.542969 47.644531 99.375 47.65625 C 99.046875 47.671875 98.710938 47.757812 98.363281 47.785156 C 98.019531 47.824219 97.664062 47.898438 97.320312 47.855469 C 96.976562 47.824219 96.632812 47.789062 96.339844 47.585938 L 96.261719 47.953125 C 95.894531 47.917969 95.957031 47.695312 95.878906 47.617188 C 94.15625 47.386719 92.585938 46.777344 91.160156 45.78125 C 89.746094 44.8125 88.703125 43.378906 88.253906 41.902344 C 88.316406 41.550781 87.90625 40.765625 88.066406 40.476562 C 87.367188 39.683594 87.160156 38.589844 87.207031 37.589844 L 87.25 37.628906 C 87.25 37.628906 87.21875 37.511719 87.203125 37.394531 C 87.191406 37.273438 87.179688 37.15625 87.179688 37.15625 C 87.214844 37.136719 87.25 37.136719 87.285156 37.152344 C 87.148438 36.882812 87.128906 36.527344 87.242188 36.183594 C 87.367188 35.835938 87.503906 35.484375 87.652344 35.195312 L 87.679688 35.238281 C 87.8125 34.792969 87.894531 34.339844 88.0625 33.921875 C 88.144531 33.707031 88.1875 33.480469 88.289062 33.277344 C 88.382812 33.070312 88.46875 32.859375 88.554688 32.652344 C 88.953125 31.839844 89.390625 31.03125 89.992188 30.339844 C 91.121094 28.910156 92.78125 27.855469 94.617188 27.519531 C 94.847656 27.539062 95.074219 27.539062 95.292969 27.519531 C 95.402344 27.507812 95.515625 27.496094 95.625 27.476562 L 95.960938 27.445312 C 96.1875 27.417969 96.414062 27.382812 96.636719 27.332031 C 96.867188 27.308594 97.101562 27.285156 97.339844 27.25 L 97.695312 27.203125 L 98.058594 27.199219 C 98.304688 27.203125 98.546875 27.199219 98.792969 27.214844 C 99.269531 27.304688 99.761719 27.378906 100.191406 27.652344 C 100.222656 27.707031 100.308594 27.765625 100.4375 27.828125 C 100.5 27.855469 100.574219 27.890625 100.660156 27.917969 C 100.738281 27.957031 100.828125 28 100.921875 28.042969 C 101.109375 28.125 101.328125 28.207031 101.5625 28.289062 C 101.78125 28.398438 102.019531 28.503906 102.261719 28.609375 C 103.210938 29.054688 104.113281 29.625 104.292969 29.683594 Z M 104.296875 29.679688 " fill-opacity="1" fill-rule="nonzero"/></g><path fill="#ffffff" d="M 107.914062 34.300781 L 107.910156 34.289062 C 107.761719 34.335938 107.820312 34.339844 107.914062 34.300781 Z M 104.554688 24.132812 L 104.585938 24.152344 L 104.558594 23.894531 Z M 110.289062 29.109375 C 110.144531 28.789062 110.085938 28.808594 110.070312 28.878906 C 110.136719 28.984375 110.207031 29.066406 110.289062 29.109375 Z M 108.613281 36.230469 C 108.621094 36.359375 108.707031 36.300781 108.796875 36.214844 L 108.730469 35.988281 C 108.707031 36.066406 108.636719 36.152344 108.613281 36.230469 Z M 110.628906 35.363281 L 110.761719 35.390625 C 110.714844 35.304688 110.671875 35.316406 110.628906 35.363281 Z M 110.628906 35.363281 " fill-opacity="1" fill-rule="nonzero"/><path fill="#ffffff" d="M 141.3125 52.367188 C 140.875 52.367188 140.511719 52.195312 140.226562 51.859375 L 119.582031 28.253906 L 119.582031 52.078125 L 116.753906 52.078125 L 116.753906 24.445312 C 116.753906 23.796875 117.054688 23.347656 117.660156 23.101562 C 118.289062 22.863281 118.824219 22.996094 119.265625 23.5 L 139.859375 47.132812 L 139.859375 23.277344 L 142.726562 23.277344 L 142.726562 50.910156 C 142.726562 51.558594 142.425781 52.007812 141.820312 52.257812 C 141.628906 52.328125 141.460938 52.367188 141.3125 52.367188 Z M 141.3125 52.367188 " fill-opacity="1" fill-rule="nonzero"/><path fill="#ffffff" d="M 171.515625 52.367188 L 148.371094 52.367188 C 147.984375 52.367188 147.65625 52.222656 147.382812 51.941406 C 147.097656 51.664062 146.957031 51.324219 146.957031 50.910156 L 146.957031 24.445312 C 146.957031 24.035156 147.097656 23.691406 147.382812 23.417969 C 147.65625 23.132812 147.984375 22.992188 148.371094 22.992188 L 171.515625 22.992188 C 171.925781 22.992188 172.269531 23.132812 172.546875 23.417969 C 172.828125 23.691406 172.96875 24.035156 172.96875 24.445312 L 172.96875 50.910156 C 172.96875 51.324219 172.828125 51.664062 172.546875 51.941406 C 172.269531 52.222656 171.925781 52.367188 171.515625 52.367188 Z M 149.824219 25.863281 L 149.824219 49.496094 L 170.101562 49.496094 L 170.101562 25.863281 Z M 149.824219 25.863281 " fill-opacity="1" fill-rule="nonzero"/><path fill="#ffffff" d="M 201.71875 52.324219 L 178.570312 52.324219 C 178.160156 52.324219 177.820312 52.1875 177.554688 51.914062 C 177.289062 51.628906 177.15625 51.292969 177.15625 50.910156 L 177.15625 24.40625 C 177.15625 23.992188 177.289062 23.65625 177.554688 23.390625 C 177.820312 23.125 178.160156 22.992188 178.570312 22.992188 L 202.84375 22.992188 L 202.84375 25.863281 L 179.984375 25.863281 L 179.984375 49.453125 L 200.261719 49.453125 L 200.261719 39.148438 L 187.316406 39.148438 L 187.316406 36.277344 L 201.71875 36.277344 C 202.128906 36.277344 202.46875 36.417969 202.734375 36.703125 C 203 36.976562 203.132812 37.320312 203.132812 37.734375 L 203.132812 50.910156 C 203.132812 51.292969 203 51.628906 202.734375 51.914062 C 202.46875 52.1875 202.128906 52.324219 201.71875 52.324219 Z M 201.71875 52.324219 " fill-opacity="1" fill-rule="nonzero"/><path fill="#ffffff" d="M 231.921875 52.367188 L 208.773438 52.367188 C 208.390625 52.367188 208.058594 52.222656 207.785156 51.941406 C 207.5 51.664062 207.359375 51.324219 207.359375 50.910156 L 207.359375 23.277344 L 210.230469 23.277344 L 210.230469 49.496094 L 230.507812 49.496094 L 230.507812 23.277344 L 233.375 23.277344 L 233.375 50.910156 C 233.375 51.324219 233.234375 51.664062 232.949219 51.941406 C 232.675781 52.222656 232.332031 52.367188 231.921875 52.367188 Z M 231.921875 52.367188 " fill-opacity="1" fill-rule="nonzero"/><path fill="#ffffff" d="M 237.5625 23.210938 L 240.429688 23.210938 L 240.429688 52.105469 L 237.5625 52.105469 Z M 237.5625 23.210938 " fill-opacity="1" fill-rule="nonzero"/><path fill="#ffffff" d="M 269.671875 52.367188 L 247.214844 52.367188 C 246.800781 52.367188 246.464844 52.222656 246.199219 51.941406 C 245.933594 51.664062 245.800781 51.324219 245.800781 50.910156 L 245.800781 23.277344 L 248.628906 23.277344 L 248.628906 49.496094 L 269.671875 49.496094 Z M 269.671875 52.367188 " fill-opacity="1" fill-rule="nonzero"/><path fill="#ffffff" d="M 293.3125 52.324219 L 276.125 52.324219 C 275.710938 52.324219 275.359375 52.179688 275.066406 51.886719 C 274.773438 51.601562 274.628906 51.253906 274.628906 50.839844 L 274.628906 24.335938 C 274.628906 23.925781 274.773438 23.570312 275.066406 23.277344 C 275.359375 22.996094 275.710938 22.851562 276.125 22.851562 L 293.3125 22.851562 C 293.695312 22.851562 294.019531 22.984375 294.285156 23.25 L 300.382812 29.023438 C 300.703125 29.289062 300.863281 29.636719 300.863281 30.066406 L 300.863281 45.25 C 300.863281 45.679688 300.703125 46.027344 300.382812 46.292969 L 294.285156 51.925781 C 294.003906 52.191406 293.679688 52.324219 293.3125 52.324219 Z M 277.539062 25.753906 L 277.539062 49.425781 L 292.734375 49.425781 L 297.925781 44.589844 L 297.925781 30.683594 L 292.695312 25.753906 Z M 277.539062 25.753906 " fill-opacity="1" fill-rule="nonzero"/><path fill="#ffffff" d="M 330.652344 52.324219 L 306.382812 52.324219 L 306.382812 49.453125 L 329.238281 49.453125 L 329.238281 38.75 L 307.660156 38.75 C 307.246094 38.75 306.902344 38.613281 306.628906 38.339844 C 306.347656 38.054688 306.203125 37.71875 306.203125 37.335938 L 306.203125 24.445312 C 306.203125 24.035156 306.347656 23.691406 306.628906 23.417969 C 306.902344 23.132812 307.246094 22.992188 307.660156 22.992188 L 331.890625 22.992188 L 331.890625 25.863281 L 309.074219 25.863281 L 309.074219 35.878906 L 330.652344 35.878906 C 331.066406 35.878906 331.410156 36.019531 331.683594 36.304688 C 331.96875 36.578125 332.109375 36.921875 332.109375 37.335938 L 332.109375 50.910156 C 332.109375 51.292969 331.96875 51.628906 331.683594 51.914062 C 331.410156 52.1875 331.066406 52.324219 330.652344 52.324219 Z M 330.652344 52.324219 " fill-opacity="1" fill-rule="nonzero"/></svg>